<?xml version="1.0" standalone="no"?>
<!DOCTYPE svg PUBLIC "-//W3C//DTD SVG 20010904//EN"
 "http://www.w3.org/TR/2001/REC-SVG-20010904/DTD/svg10.dtd">
<svg version="1.0" xmlns="http://www.w3.org/2000/svg"
 width="1280.000000pt" height="640.000000pt" viewBox="0 0 1280.000000 640.000000"
 preserveAspectRatio="xMidYMid meet">
<metadata>
Created by potrace 1.15, written by Peter Selinger 2001-2017
</metadata>
<g transform="translate(0.000000,640.000000) scale(0.100000,-0.100000)"
fill="#000000" stroke="none">
<path d="M1505 5824 c-77 -58 -146 -111 -153 -118 -12 -11 1 -32 77 -126 236
-292 418 -617 546 -970 24 -69 95 -314 95 -331 0 -10 -54 6 -162 47 -112 43
-191 52 -278 30 -64 -16 -67 -16 -165 9 -632 161 -1208 -292 -1398 -1100 -51
-215 -62 -320 -61 -590 1 -268 16 -416 69 -645 132 -572 414 -1048 791 -1331
99 -74 271 -161 389 -196 81 -24 107 -27 250 -27 180 -1 239 10 380 72 78 34
83 35 225 37 133 2 149 1 190 -20 67 -34 186 -72 264 -86 109 -19 302 -7 411
25 207 61 409 189 586 372 158 164 271 328 379 549 261 534 350 1162 245 1729
-128 690 -526 1164 -1039 1235 -140 20 -302 6 -428 -35 -43 -14 -54 -14 -118
2 -94 22 -162 15 -283 -31 -54 -21 -100 -35 -104 -32 -3 4 -10 68 -14 144 -29
453 -144 862 -341 1205 -61 108 -184 279 -203 284 -5 2 -73 -44 -150 -102z"/>
<path d="M11572 5062 c-126 -126 -216 -253 -302 -427 -64 -131 -139 -332 -155
-417 -8 -43 -6 -43 -71 -23 -28 8 -89 15 -142 15 -154 0 -270 -37 -577 -186
-88 -42 -194 -91 -235 -108 l-75 -31 170 3 170 4 -76 -55 c-41 -30 -106 -73
-145 -97 -60 -37 -60 -47 0 -24 9 4 -41 -52 -112 -122 -240 -241 -381 -500
-454 -837 -19 -87 -22 -134 -23 -317 0 -186 3 -229 23 -322 121 -575 532
-1041 1077 -1224 203 -68 274 -78 525 -78 196 0 238 3 324 22 328 73 592 217
821 447 66 66 141 148 165 183 280 391 379 848 284 1310 -66 323 -263 660
-509 875 -44 39 -82 72 -85 75 -3 3 11 2 30 -2 29 -5 20 3 -52 48 -181 114
-214 139 -192 147 10 4 89 8 174 9 l155 1 -75 28 c-41 16 -138 57 -215 91
-198 88 -303 127 -403 151 -114 28 -246 28 -324 2 -32 -11 -58 -18 -58 -15 0
13 88 165 142 244 112 167 333 406 461 498 55 39 58 27 -48 148 -38 44 -76 81
-83 81 -7 1 -57 -43 -110 -97z"/>
<path d="M8646 4885 c-252 -64 -390 -284 -371 -596 l6 -106 -62 -6 c-75 -8
-113 -25 -117 -53 -2 -12 -20 -35 -42 -52 -73 -60 -152 -200 -201 -359 -125
-403 -137 -1154 -33 -2083 24 -218 92 -711 98 -718 9 -8 215 487 326 784 417
1111 551 1882 390 2232 -16 35 -39 75 -50 89 -11 14 -20 36 -20 49 0 30 -40
60 -109 80 -31 9 -63 19 -71 21 -19 6 47 65 126 112 268 163 561 102 806 -169
l65 -73 109 -18 c60 -10 112 -18 117 -16 14 4 -103 142 -176 205 -223 196
-519 284 -752 222 -38 -10 -71 -17 -73 -15 -6 6 137 74 186 89 175 51 358 17
533 -100 86 -56 216 -185 273 -267 22 -32 49 -60 60 -62 55 -14 271 -53 274
-51 5 6 -79 124 -141 197 -79 92 -176 174 -297 251 -406 255 -849 211 -1107
-112 -26 -33 -49 -55 -51 -50 -7 21 40 179 73 247 44 89 103 151 181 189 55
27 67 29 169 28 97 0 121 -4 207 -33 54 -19 132 -53 175 -77 42 -24 81 -44 86
-44 24 0 207 53 207 60 0 11 -122 83 -210 124 -136 64 -238 88 -390 92 -97 3
-152 -1 -194 -11z"/>
<path d="M5741 4309 c-50 -30 -67 -56 -91 -134 -59 -191 -51 -180 -185 -249
-724 -374 -933 -1520 -414 -2276 149 -218 352 -382 567 -460 100 -36 121 -52
150 -118 11 -26 32 -74 47 -107 45 -103 89 -135 184 -135 126 0 169 40 211
196 34 126 50 147 154 200 158 81 273 173 376 301 79 97 116 155 173 269 163
323 213 730 136 1108 -103 509 -421 922 -820 1067 -46 17 -96 42 -111 56 -16
16 -43 66 -64 121 -58 149 -97 182 -211 182 -51 0 -76 -5 -102 -21z"/>
</g>
</svg>
